<?xml version="1.0" standalone="yes"?>

<svg version="1.1" viewBox="0.0 0.0 612.0 353.0" fill="none" stroke="none" stroke-linecap="square" stroke-miterlimit="10" xmlns="http://www.w3.org/2000/svg" xmlns:xlink="http://www.w3.org/1999/xlink"><clipPath id="p.0"><path d="m0 0l612.0 0l0 353.0l-612.0 0l0 -353.0z" clip-rule="nonzero"></path></clipPath><g clip-path="url(#p.0)"><path fill="#000000" fill-opacity="0.0" d="m0 0l612.0 0l0 353.0l-612.0 0z" fill-rule="nonzero"></path><path fill="#f3f3f3" d="m177.21712 15.3359585l163.81102 0l0 49.133858l-163.81102 0z" fill-rule="nonzero"></path><path stroke="#000000" stroke-width="2.0" stroke-linejoin="round" stroke-linecap="butt" d="m177.21712 15.3359585l163.81102 0l0 49.133858l-163.81102 0z" fill-rule="nonzero"></path><path fill="#000000" d="m234.95276 44.702885l0 -9.3125l4.125 0q1.25 0 1.890625 0.265625q0.65625 0.25 1.046875 0.890625q0.390625 0.625 0.390625 1.390625q0 0.984375 -0.65625 1.671875q-0.640625 0.671875 -1.96875 0.859375q0.484375 0.234375 0.734375 0.46875q0.546875 0.484375 1.03125 1.234375l1.609375 2.53125l-1.546875 0l-1.234375 -1.9375q-0.53125 -0.84375 -0.890625 -1.28125q-0.34375 -0.4375 -0.625 -0.609375q-0.265625 -0.1875 -0.546875 -0.265625q-0.21875 -0.03125 -0.6875 -0.03125l-1.4375 0l0 4.125l-1.234375 0zm1.234375 -5.203125l2.65625 0q0.84375 0 1.3125 -0.171875q0.484375 -0.171875 0.71875 -0.546875q0.25 -0.390625 0.25 -0.84375q0 -0.65625 -0.484375 -1.078125q-0.46875 -0.4375 -1.5 -0.4375l-2.953125 0l0 3.078125zm7.8126526 1.828125q0 -1.875 1.03125 -2.765625q0.875 -0.75 2.125 -0.75q1.390625 0 2.265625 0.90625q0.890625 0.90625 0.890625 2.515625q0 1.296875 -0.390625 2.046875q-0.390625 0.75 -1.140625 1.171875q-0.75 0.40625 -1.625 0.40625q-1.421875 0 -2.296875 -0.90625q-0.859375 -0.90625 -0.859375 -2.625zm1.171875 0q0 1.296875 0.5625 1.953125q0.5625 0.640625 1.421875 0.640625q0.84375 0 1.40625 -0.640625q0.578125 -0.65625 0.578125 -1.984375q0 -1.25 -0.578125 -1.890625q-0.5625 -0.65625 -1.40625 -0.65625q-0.859375 0 -1.421875 0.640625q-0.5625 0.640625 -0.5625 1.9375zm6.2406006 0q0 -1.875 1.03125 -2.765625q0.875 -0.75 2.125 -0.75q1.390625 0 2.265625 0.90625q0.890625 0.90625 0.890625 2.515625q0 1.296875 -0.390625 2.046875q-0.390625 0.75 -1.140625 1.171875q-0.75 0.40625 -1.625 0.40625q-1.421875 0 -2.296875 -0.90625q-0.859375 -0.90625 -0.859375 -2.625zm1.171875 0q0 1.296875 0.5625 1.953125q0.5625 0.640625 1.421875 0.640625q0.84375 0 1.40625 -0.640625q0.578125 -0.65625 0.578125 -1.984375q0 -1.25 -0.578125 -1.890625q-0.5625 -0.65625 -1.40625 -0.65625q-0.859375 0 -1.421875 0.640625q-0.5625 0.640625 -0.5625 1.9375zm9.162476 2.359375l0.15625 1.0q-0.484375 0.109375 -0.859375 0.109375q-0.625 0 -0.96875 -0.203125q-0.34375 -0.203125 -0.484375 -0.515625q-0.140625 -0.328125 -0.140625 -1.34375l0 -3.890625l-0.828125 0l0 -0.875l0.828125 0l0 -1.671875l1.140625 -0.6875l0 2.359375l1.15625 0l0 0.875l-1.15625 0l0 3.953125q0 0.484375 0.0625 0.625q0.0625 0.140625 0.1875 0.21875q0.140625 0.078125 0.390625 0.078125q0.203125 0 0.515625 -0.03125zm11.687225 -2.25l1.234375 0.3125q-0.390625 1.515625 -1.40625 2.3125q-1.0 0.796875 -2.453125 0.796875q-1.5 0 -2.453125 -0.609375q-0.9375 -0.609375 -1.4375 -1.765625q-0.484375 -1.171875 -0.484375 -2.5q0 -1.453125 0.5625 -2.53125q0.5625 -1.09375 1.578125 -1.65625q1.03125 -0.5625 2.265625 -0.5625q1.390625 0 2.34375 0.71875q0.953125 0.703125 1.328125 2.0l-1.21875 0.28125q-0.328125 -1.015625 -0.9375 -1.46875q-0.609375 -0.46875 -1.546875 -0.46875q-1.078125 0 -1.796875 0.515625q-0.71875 0.515625 -1.015625 1.375q-0.28125 0.859375 -0.28125 1.78125q0 1.1875 0.34375 2.078125q0.34375 0.890625 1.0625 1.328125q0.734375 0.4375 1.59375 0.4375q1.03125 0 1.75 -0.59375q0.71875 -0.609375 0.96875 -1.78125zm1.9689026 3.265625l3.578125 -9.3125l1.3125 0l3.8125 9.3125l-1.40625 0l-1.078125 -2.8125l-3.890625 0l-1.03125 2.8125l-1.296875 0zm2.6875 -3.828125l3.15625 0l-0.984375 -2.578125q-0.4375 -1.171875 -0.65625 -1.921875q-0.171875 0.890625 -0.5 1.78125l-1.015625 2.71875z" fill-rule="nonzero"></path><path fill="#f3f3f3" d="m13.396325 102.260475l163.81102 0l0 49.133858l-163.81102 0z" fill-rule="nonzero"></path><path stroke="#000000" stroke-width="2.0" stroke-linejoin="round" stroke-linecap="butt" d="m13.396325 102.260475l163.81102 0l0 49.133858l-163.81102 0z" fill-rule="nonzero"></path><path fill="#000000" d="m64.29682 131.6274l0 -9.312492l1.21875 0l0 9.312492l-1.21875 0zm2.8904877 -2.015625l1.125 -0.171875q0.09375 0.671875 0.53125 1.046875q0.4375 0.359375 1.21875 0.359375q0.78125 0 1.15625 -0.3125q0.390625 -0.328125 0.390625 -0.765625q0 -0.390625 -0.34375 -0.609375q-0.234375 -0.15625 -1.171875 -0.390625q-1.25 -0.3125 -1.734375 -0.546875q-0.484375 -0.23436737 -0.734375 -0.6406174q-0.25 -0.40625 -0.25 -0.90625q0 -0.453125 0.203125 -0.828125q0.203125 -0.390625 0.5625 -0.640625q0.265625 -0.203125 0.71875 -0.328125q0.46875 -0.140625 1.0 -0.140625q0.78125 0 1.375 0.234375q0.609375 0.21875 0.890625 0.609375q0.296875 0.390625 0.40625 1.046875l-1.125 0.15625q-0.078125 -0.53125 -0.4375 -0.8125q-0.359375 -0.296875 -1.03125 -0.296875q-0.78125 0 -1.125 0.265625q-0.34375 0.25 -0.34375 0.609375q0 0.21875 0.140625 0.390625q0.140625 0.1875 0.4375 0.3125q0.171875 0.0625 1.015625 0.28125q1.21875 0.328125 1.6875 0.5312424q0.484375 0.203125 0.75 0.609375q0.28125 0.390625 0.28125 0.96875q0 0.578125 -0.34375 1.078125q-0.328125 0.5 -0.953125 0.78125q-0.625 0.28125 -1.421875 0.28125q-1.3125 0 -2.0 -0.546875q-0.6875 -0.546875 -0.875 -1.625zm6.6640625 0l1.125 -0.171875q0.09375 0.671875 0.53125 1.046875q0.4375 0.359375 1.21875 0.359375q0.78125 0 1.15625 -0.3125q0.390625 -0.328125 0.390625 -0.765625q0 -0.390625 -0.34375 -0.609375q-0.234375 -0.15625 -1.171875 -0.390625q-1.25 -0.3125 -1.734375 -0.546875q-0.484375 -0.23436737 -0.734375 -0.6406174q-0.25 -0.40625 -0.25 -0.90625q0 -0.453125 0.203125 -0.828125q0.203125 -0.390625 0.5625 -0.640625q0.265625 -0.203125 0.71875 -0.328125q0.46875 -0.140625 1.0 -0.140625q0.78125 0 1.375 0.234375q0.609375 0.21875 0.890625 0.609375q0.296875 0.390625 0.40625 1.046875l-1.125 0.15625q-0.078125 -0.53125 -0.4375 -0.8125q-0.359375 -0.296875 -1.03125 -0.296875q-0.78125 0 -1.125 0.265625q-0.34375 0.25 -0.34375 0.609375q0 0.21875 0.140625 0.390625q0.140625 0.1875 0.4375 0.3125q0.171875 0.0625 1.015625 0.28125q1.21875 0.328125 1.6875 0.5312424q0.484375 0.203125 0.75 0.609375q0.28125 0.390625 0.28125 0.96875q0 0.578125 -0.34375 1.078125q-0.328125 0.5 -0.953125 0.78125q-0.625 0.28125 -1.421875 0.28125q-1.3125 0 -2.0 -0.546875q-0.6875 -0.546875 -0.875 -1.625zm11.5390625 2.015625l0 -0.984375q-0.796875 1.140625 -2.140625 1.140625q-0.59375 0 -1.125 -0.234375q-0.515625 -0.234375 -0.765625 -0.578125q-0.25 -0.34375 -0.34375 -0.84375q-0.078125 -0.328125 -0.078125 -1.0625l0 -4.1718674l1.140625 0l0 3.7343674q0 0.890625 0.078125 1.203125q0.109375 0.453125 0.453125 0.71875q0.34375 0.25 0.859375 0.25q0.515625 0 0.96875 -0.265625q0.453125 -0.265625 0.640625 -0.71875q0.1875 -0.453125 0.1875 -1.3125l0 -3.6093674l1.140625 0l0 6.7343674l-1.015625 0zm2.9906006 -7.9843674l0 -1.328125l1.140625 0l0 1.328125l-1.140625 0zm0 7.9843674l0 -6.7343674l1.140625 0l0 6.7343674l-1.140625 0zm2.96109 0l0 -6.7343674l1.03125 0l0 0.953125q0.734375 -1.109375 2.140625 -1.109375q0.609375 0 1.109375 0.21875q0.515625 0.21875 0.765625 0.578125q0.265625 0.34375 0.359375 0.84375q0.0625 0.3125 0.0625 1.109375l0 4.1406174l-1.140625 0l0 -4.0937424q0 -0.703125 -0.140625 -1.046875q-0.125 -0.34375 -0.46875 -0.546875q-0.328125 -0.21875 -0.78125 -0.21875q-0.734375 0 -1.265625 0.46875q-0.53125 0.453125 -0.53125 1.75l0 3.6874924l-1.140625 0zm7.1937256 0.5625l1.125 0.15625q0.0625 0.515625 0.375 0.75q0.4375 0.328125 1.171875 0.328125q0.78125 0 1.21875 -0.328125q0.4375 -0.3125 0.578125 -0.890625q0.09375 -0.34375 0.09375 -1.453125q-0.75 0.875 -1.875 0.875q-1.390625 0 -2.15625 -1.0q-0.75 -1.0 -0.75 -2.40625q0 -0.9687424 0.34375 -1.7812424q0.359375 -0.8125 1.015625 -1.25q0.65625 -0.453125 1.5625 -0.453125q1.1875 0 1.96875 0.96875l0 -0.8125l1.046875 0l0 5.8124924q0 1.578125 -0.328125 2.234375q-0.3125 0.65625 -1.015625 1.03125q-0.6875 0.390625 -1.703125 0.390625q-1.203125 0 -1.953125 -0.546875q-0.734375 -0.53125 -0.71875 -1.625zm0.953125 -4.046875q0 1.3125 0.515625 1.921875q0.53125 0.609375 1.328125 0.609375q0.796875 0 1.328125 -0.59375q0.53125 -0.609375 0.53125 -1.90625q0 -1.2343674 -0.546875 -1.8593674q-0.546875 -0.640625 -1.328125 -0.640625q-0.765625 0 -1.296875 0.625q-0.53125 0.625 -0.53125 1.8437424zm17.162338 0.21875l1.234375 0.3125q-0.390625 1.515625 -1.40625 2.3125q-1.0 0.796875 -2.453125 0.796875q-1.5 0 -2.453125 -0.609375q-0.9375 -0.609375 -1.4375 -1.765625q-0.484375 -1.171875 -0.484375 -2.4999924q0 -1.453125 0.5625 -2.53125q0.5625 -1.09375 1.578125 -1.65625q1.03125 -0.5625 2.265625 -0.5625q1.390625 0 2.34375 0.71875q0.953125 0.703125 1.328125 2.0l-1.21875 0.28125q-0.328125 -1.015625 -0.9375 -1.46875q-0.609375 -0.46875 -1.546875 -0.46875q-1.078125 0 -1.796875 0.515625q-0.71875 0.515625 -1.015625 1.375q-0.28125 0.859375 -0.28125 1.78125q0 1.1874924 0.34375 2.0781174q0.34375 0.890625 1.0625 1.328125q0.734375 0.4375 1.59375 0.4375q1.03125 0 1.75 -0.59375q0.71875 -0.609375 0.96875 -1.78125zm1.9689026 3.265625l3.578125 -9.312492l1.3125 0l3.8125 9.312492l-1.40625 0l-1.078125 -2.8125l-3.890625 0l-1.03125 2.8125l-1.296875 0zm2.6875 -3.8281174l3.15625 0l-0.984375 -2.578125q-0.4375 -1.171875 -0.65625 -1.921875q-0.171875 0.890625 -0.5 1.78125l-1.015625 2.71875z" fill-rule="nonzero"></path><path fill="#f3f3f3" d="m341.0379 102.260475l163.811 0l0 49.133858l-163.811 0z" fill-rule="nonzero"></path><path stroke="#000000" stroke-width="2.0" stroke-linejoin="round" stroke-linecap="butt" d="m341.0379 102.260475l163.811 0l0 49.133858l-163.811 0z" fill-rule="nonzero"></path><path fill="#000000" d="m376.01035 131.6274l0 -9.312492l1.21875 0l0 9.312492l-1.21875 0zm3.343628 0l0 -6.7343674l1.03125 0l0 0.953125q0.734375 -1.109375 2.140625 -1.109375q0.609375 0 1.109375 0.21875q0.515625 0.21875 0.765625 0.578125q0.265625 0.34375 0.359375 0.84375q0.0625 0.3125 0.0625 1.109375l0 4.1406174l-1.140625 0l0 -4.0937424q0 -0.703125 -0.140625 -1.046875q-0.125 -0.34375 -0.46875 -0.546875q-0.328125 -0.21875 -0.78125 -0.21875q-0.734375 0 -1.265625 0.46875q-0.53125 0.453125 -0.53125 1.75l0 3.6874924l-1.140625 0zm9.912476 -1.015625l0.15625 1.0q-0.484375 0.109375 -0.859375 0.109375q-0.625 0 -0.96875 -0.203125q-0.34375 -0.203125 -0.484375 -0.515625q-0.140625 -0.328125 -0.140625 -1.34375l0 -3.8906174l-0.828125 0l0 -0.875l0.828125 0l0 -1.671875l1.140625 -0.6875l0 2.359375l1.15625 0l0 0.875l-1.15625 0l0 3.9531174q0 0.484375 0.0625 0.625q0.0625 0.140625 0.1875 0.21875q0.140625 0.078125 0.390625 0.078125q0.203125 0 0.515625 -0.03125zm5.8123474 -1.15625l1.1875 0.140625q-0.28125 1.046875 -1.046875 1.625q-0.75 0.5625 -1.921875 0.5625q-1.484375 0 -2.359375 -0.90625q-0.859375 -0.921875 -0.859375 -2.5625q0 -1.7031174 0.875 -2.6406174q0.890625 -0.9375 2.28125 -0.9375q1.359375 0 2.203125 0.921875q0.859375 0.921875 0.859375 2.5781174q0 0.109375 0 0.3125l-5.03125 0q0.0625 1.109375 0.625 1.703125q0.5625 0.59375 1.40625 0.59375q0.640625 0 1.078125 -0.328125q0.453125 -0.34375 0.703125 -1.0625zm-3.75 -1.8437424l3.765625 0q-0.078125 -0.859375 -0.4375 -1.28125q-0.546875 -0.65625 -1.40625 -0.65625q-0.796875 0 -1.328125 0.53125q-0.53125 0.515625 -0.59375 1.40625zm6.5374756 4.0156174l0 -6.7343674l1.03125 0l0 1.015625q0.390625 -0.71875 0.71875 -0.9375q0.34375 -0.234375 0.734375 -0.234375q0.578125 0 1.171875 0.359375l-0.390625 1.0625q-0.421875 -0.25 -0.828125 -0.25q-0.375 0 -0.6875 0.234375q-0.296875 0.21875 -0.421875 0.625q-0.1875 0.609375 -0.1875 1.3281174l0 3.53125l-1.140625 0zm4.45401 0l0 -6.7343674l1.015625 0l0 0.9375q0.328125 -0.5 0.84375 -0.796875q0.53125 -0.296875 1.203125 -0.296875q0.75 0 1.21875 0.3125q0.484375 0.3125 0.6875 0.859375q0.796875 -1.171875 2.078125 -1.171875q1.0 0 1.53125 0.5625q0.546875 0.546875 0.546875 1.703125l0 4.6249924l-1.125 0l0 -4.2499924q0 -0.6875 -0.109375 -0.984375q-0.109375 -0.296875 -0.40625 -0.484375q-0.296875 -0.1875 -0.6875 -0.1875q-0.71875 0 -1.1875 0.484375q-0.46875 0.46875 -0.46875 1.5l0 3.9218674l-1.140625 0l0 -4.3749924q0 -0.765625 -0.28125 -1.140625q-0.28125 -0.390625 -0.90625 -0.390625q-0.484375 0 -0.890625 0.265625q-0.40625 0.25 -0.59375 0.734375q-0.1875 0.484375 -0.1875 1.4062424l0 3.5l-1.140625 0zm15.711792 -2.171875l1.1875 0.140625q-0.28125 1.046875 -1.046875 1.625q-0.75 0.5625 -1.921875 0.5625q-1.484375 0 -2.359375 -0.90625q-0.859375 -0.921875 -0.859375 -2.5625q0 -1.7031174 0.875 -2.6406174q0.890625 -0.9375 2.28125 -0.9375q1.359375 0 2.203125 0.921875q0.859375 0.921875 0.859375 2.5781174q0 0.109375 0 0.3125l-5.03125 0q0.0625 1.109375 0.625 1.703125q0.5625 0.59375 1.40625 0.59375q0.640625 0 1.078125 -0.328125q0.453125 -0.34375 0.703125 -1.0625zm-3.75 -1.8437424l3.765625 0q-0.078125 -0.859375 -0.4375 -1.28125q-0.546875 -0.65625 -1.40625 -0.65625q-0.796875 0 -1.328125 0.53125q-0.53125 0.515625 -0.59375 1.40625zm10.928101 4.0156174l0 -0.84375q-0.640625 1.0 -1.890625 1.0q-0.796875 0 -1.484375 -0.4375q-0.671875 -0.453125 -1.046875 -1.25q-0.375 -0.796875 -0.375 -1.828125q0 -1.0156174 0.34375 -1.8281174q0.34375 -0.828125 1.015625 -1.265625q0.671875 -0.4375 1.5 -0.4375q0.609375 0 1.078125 0.265625q0.484375 0.25 0.78125 0.65625l0 -3.34375l1.140625 0l0 9.312492l-1.0625 0zm-3.609375 -3.359375q0 1.296875 0.53125 1.9375q0.546875 0.640625 1.296875 0.640625q0.75 0 1.265625 -0.609375q0.53125 -0.625 0.53125 -1.875q0 -1.3906174 -0.53125 -2.0312424q-0.53125 -0.65625 -1.3125 -0.65625q-0.765625 0 -1.28125 0.625q-0.5 0.625 -0.5 1.9687424zm6.6468506 -4.6249924l0 -1.328125l1.140625 0l0 1.328125l-1.140625 0zm0 7.9843674l0 -6.7343674l1.140625 0l0 6.7343674l-1.140625 0zm7.351715 -0.828125q-0.625 0.53125 -1.21875 0.765625q-0.578125 0.21875 -1.25 0.21875q-1.125 0 -1.71875 -0.546875q-0.59375 -0.546875 -0.59375 -1.390625q0 -0.484375 0.21875 -0.890625q0.234375 -0.421875 0.59375 -0.671875q0.375 -0.25 0.828125 -0.37499237q0.328125 -0.078125 1.015625 -0.171875q1.375 -0.15625 2.03125 -0.390625q0.015625 -0.234375 0.015625 -0.296875q0 -0.703125 -0.328125 -0.984375q-0.4375 -0.390625 -1.296875 -0.390625q-0.8125 0 -1.203125 0.28125q-0.375 0.28125 -0.5625 1.0l-1.109375 -0.140625q0.140625 -0.71875 0.484375 -1.15625q0.359375 -0.453125 1.015625 -0.6875q0.671875 -0.234375 1.53125 -0.234375q0.875 0 1.40625 0.203125q0.546875 0.203125 0.796875 0.515625q0.25 0.296875 0.359375 0.765625q0.046875 0.296875 0.046875 1.0625l0 1.5156174q0 1.59375 0.078125 2.015625q0.078125 0.421875 0.28125 0.8125l-1.1875 0q-0.171875 -0.359375 -0.234375 -0.828125zm-0.09375 -2.5625q-0.625 0.265625 -1.859375 0.4375q-0.703125 0.109375 -1.0 0.234375q-0.296875 0.125 -0.453125 0.375q-0.15625 0.234375 -0.15625 0.53125q0 0.453125 0.34375 0.765625q0.34375 0.296875 1.015625 0.296875q0.65625 0 1.171875 -0.28125q0.515625 -0.296875 0.765625 -0.796875q0.171875 -0.375 0.171875 -1.140625l0 -0.421875zm5.6156006 2.375l0.15625 1.0q-0.484375 0.109375 -0.859375 0.109375q-0.625 0 -0.96875 -0.203125q-0.34375 -0.203125 -0.484375 -0.515625q-0.140625 -0.328125 -0.140625 -1.34375l0 -3.8906174l-0.828125 0l0 -0.875l0.828125 0l0 -1.671875l1.140625 -0.6875l0 2.359375l1.15625 0l0 0.875l-1.15625 0l0 3.9531174q0 0.484375 0.0625 0.625q0.0625 0.140625 0.1875 0.21875q0.140625 0.078125 0.390625 0.078125q0.203125 0 0.515625 -0.03125zm5.812378 -1.15625l1.1875 0.140625q-0.28125 1.046875 -1.046875 1.625q-0.75 0.5625 -1.921875 0.5625q-1.484375 0 -2.359375 -0.90625q-0.859375 -0.921875 -0.859375 -2.5625q0 -1.7031174 0.875 -2.6406174q0.890625 -0.9375 2.28125 -0.9375q1.359375 0 2.203125 0.921875q0.859375 0.921875 0.859375 2.5781174q0 0.109375 0 0.3125l-5.03125 0q0.0625 1.109375 0.625 1.703125q0.5625 0.59375 1.40625 0.59375q0.640625 0 1.078125 -0.328125q0.453125 -0.34375 0.703125 -1.0625zm-3.75 -1.8437424l3.765625 0q-0.078125 -0.859375 -0.4375 -1.28125q-0.546875 -0.65625 -1.40625 -0.65625q-0.796875 0 -1.328125 0.53125q-0.53125 0.515625 -0.59375 1.40625zm17.037323 0.7499924l1.234375 0.3125q-0.390625 1.515625 -1.40625 2.3125q-1.0 0.796875 -2.453125 0.796875q-1.5 0 -2.453125 -0.609375q-0.9375 -0.609375 -1.4375 -1.765625q-0.484375 -1.171875 -0.484375 -2.4999924q0 -1.453125 0.5625 -2.53125q0.5625 -1.09375 1.578125 -1.65625q1.03125 -0.5625 2.265625 -0.5625q1.390625 0 2.34375 0.71875q0.953125 0.703125 1.328125 2.0l-1.21875 0.28125q-0.328125 -1.015625 -0.9375 -1.46875q-0.609375 -0.46875 -1.546875 -0.46875q-1.078125 0 -1.796875 0.515625q-0.71875 0.515625 -1.015625 1.375q-0.28125 0.859375 -0.28125 1.78125q0 1.1874924 0.34375 2.0781174q0.34375 0.890625 1.0625 1.328125q0.734375 0.4375 1.59375 0.4375q1.03125 0 1.75 -0.59375q0.71875 -0.609375 0.96875 -1.78125zm1.9689026 3.265625l3.578125 -9.312492l1.3125 0l3.8125 9.312492l-1.40625 0l-1.078125 -2.8125l-3.890625 0l-1.03125 2.8125l-1.296875 0zm2.6875 -3.8281174l3.15625 0l-0.984375 -2.578125q-0.4375 -1.171875 -0.65625 -1.921875q-0.171875 0.890625 -0.5 1.78125l-1.015625 2.71875z" fill-rule="nonzero"></path><path fill="#f3f3f3" d="m250.89581 189.18541l163.81104 0l0 49.13385l-163.81104 0z" fill-rule="nonzero"></path><path stroke="#000000" stroke-width="2.0" stroke-linejoin="round" stroke-linecap="butt" d="m250.89581 189.18541l163.81104 0l0 49.13385l-163.81104 0z" fill-rule="nonzero"></path><path fill="#000000" d="m283.21848 218.55234l0 -8.203125l-3.0625 0l0 -1.109375l7.375 0l0 1.109375l-3.078125 0l0 8.203125l-1.234375 0zm5.6257324 -7.984375l0 -1.328125l1.140625 0l0 1.328125l-1.140625 0zm0 7.984375l0 -6.734375l1.140625 0l0 6.734375l-1.140625 0zm2.96109 0l0 -6.734375l1.015625 0l0 0.9375q0.328125 -0.5 0.84375 -0.796875q0.53125 -0.296875 1.203125 -0.296875q0.75 0 1.21875 0.3125q0.484375 0.3125 0.6875 0.859375q0.796875 -1.171875 2.078125 -1.171875q1.0 0 1.53125 0.5625q0.546875 0.546875 0.546875 1.703125l0 4.625l-1.125 0l0 -4.25q0 -0.6875 -0.109375 -0.984375q-0.109375 -0.296875 -0.40625 -0.484375q-0.296875 -0.1875 -0.6875 -0.1875q-0.71875 0 -1.1875 0.484375q-0.46875 0.46875 -0.46875 1.5l0 3.921875l-1.140625 0l0 -4.375q0 -0.765625 -0.28125 -1.140625q-0.28125 -0.390625 -0.90625 -0.390625q-0.484375 0 -0.890625 0.265625q-0.40625 0.25 -0.59375 0.734375q-0.1875 0.484375 -0.1875 1.40625l0 3.5l-1.140625 0zm15.711792 -2.171875l1.1875 0.140625q-0.28125 1.046875 -1.046875 1.625q-0.75 0.5625 -1.921875 0.5625q-1.484375 0 -2.359375 -0.90625q-0.859375 -0.921875 -0.859375 -2.5625q0 -1.703125 0.875 -2.640625q0.890625 -0.9375 2.28125 -0.9375q1.359375 0 2.203125 0.921875q0.859375 0.921875 0.859375 2.578125q0 0.109375 0 0.3125l-5.03125 0q0.0625 1.109375 0.625 1.703125q0.5625 0.59375 1.40625 0.59375q0.640625 0 1.078125 -0.328125q0.453125 -0.34375 0.703125 -1.0625zm-3.75 -1.84375l3.765625 0q-0.078125 -0.859375 -0.4375 -1.28125q-0.546875 -0.65625 -1.40625 -0.65625q-0.796875 0 -1.328125 0.53125q-0.53125 0.515625 -0.59375 1.40625zm6.0999756 2.0l1.125 -0.171875q0.09375 0.671875 0.53125 1.046875q0.4375 0.359375 1.21875 0.359375q0.78125 0 1.15625 -0.3125q0.390625 -0.328125 0.390625 -0.765625q0 -0.390625 -0.34375 -0.609375q-0.234375 -0.15625 -1.171875 -0.390625q-1.25 -0.3125 -1.734375 -0.546875q-0.484375 -0.234375 -0.734375 -0.640625q-0.25 -0.40625 -0.25 -0.90625q0 -0.453125 0.203125 -0.828125q0.203125 -0.390625 0.5625 -0.640625q0.265625 -0.203125 0.71875 -0.328125q0.46875 -0.140625 1.0 -0.140625q0.78125 0 1.375 0.234375q0.609375 0.21875 0.890625 0.609375q0.296875 0.390625 0.40625 1.046875l-1.125 0.15625q-0.078125 -0.53125 -0.4375 -0.8125q-0.359375 -0.296875 -1.03125 -0.296875q-0.78125 0 -1.125 0.265625q-0.34375 0.25 -0.34375 0.609375q0 0.21875 0.140625 0.390625q0.140625 0.1875 0.4375 0.3125q0.171875 0.0625 1.015625 0.28125q1.21875 0.328125 1.6875 0.53125q0.484375 0.203125 0.75 0.609375q0.28125 0.390625 0.28125 0.96875q0 0.578125 -0.34375 1.078125q-0.328125 0.5 -0.953125 0.78125q-0.625 0.28125 -1.421875 0.28125q-1.3125 0 -2.0 -0.546875q-0.6875 -0.546875 -0.875 -1.625zm9.6171875 1.0l0.15625 1.0q-0.484375 0.109375 -0.859375 0.109375q-0.625 0 -0.96875 -0.203125q-0.34375 -0.203125 -0.484375 -0.515625q-0.140625 -0.328125 -0.140625 -1.34375l0 -3.890625l-0.828125 0l0 -0.875l0.828125 0l0 -1.671875l1.140625 -0.6875l0 2.359375l1.15625 0l0 0.875l-1.15625 0l0 3.953125q0 0.484375 0.0625 0.625q0.0625 0.140625 0.1875 0.21875q0.140625 0.078125 0.390625 0.078125q0.203125 0 0.515625 -0.03125zm5.593628 0.1875q-0.625 0.53125 -1.21875 0.765625q-0.578125 0.21875 -1.25 0.21875q-1.125 0 -1.71875 -0.546875q-0.59375 -0.546875 -0.59375 -1.390625q0 -0.484375 0.21875 -0.890625q0.234375 -0.421875 0.59375 -0.671875q0.375 -0.25 0.828125 -0.375q0.328125 -0.078125 1.015625 -0.171875q1.375 -0.15625 2.03125 -0.390625q0.015625 -0.234375 0.015625 -0.296875q0 -0.703125 -0.328125 -0.984375q-0.4375 -0.390625 -1.296875 -0.390625q-0.8125 0 -1.203125 0.28125q-0.375 0.28125 -0.5625 1.0l-1.109375 -0.140625q0.140625 -0.71875 0.484375 -1.15625q0.359375 -0.453125 1.015625 -0.6875q0.671875 -0.234375 1.53125 -0.234375q0.875 0 1.40625 0.203125q0.546875 0.203125 0.796875 0.515625q0.25 0.296875 0.359375 0.765625q0.046875 0.296875 0.046875 1.0625l0 1.515625q0 1.59375 0.078125 2.015625q0.078125 0.421875 0.28125 0.8125l-1.1875 0q-0.171875 -0.359375 -0.234375 -0.828125zm-0.09375 -2.5625q-0.625 0.265625 -1.859375 0.4375q-0.703125 0.109375 -1.0 0.234375q-0.296875 0.125 -0.453125 0.375q-0.15625 0.234375 -0.15625 0.53125q0 0.453125 0.34375 0.765625q0.34375 0.296875 1.015625 0.296875q0.65625 0 1.171875 -0.28125q0.515625 -0.296875 0.765625 -0.796875q0.171875 -0.375 0.171875 -1.140625l0 -0.421875zm3.1156006 3.390625l0 -6.734375l1.015625 0l0 0.9375q0.328125 -0.5 0.84375 -0.796875q0.53125 -0.296875 1.203125 -0.296875q0.75 0 1.21875 0.3125q0.484375 0.3125 0.6875 0.859375q0.796875 -1.171875 2.078125 -1.171875q1.0 0 1.53125 0.5625q0.546875 0.546875 0.546875 1.703125l0 4.625l-1.125 0l0 -4.25q0 -0.6875 -0.109375 -0.984375q-0.109375 -0.296875 -0.40625 -0.484375q-0.296875 -0.1875 -0.6875 -0.1875q-0.71875 0 -1.1875 0.484375q-0.46875 0.46875 -0.46875 1.5l0 3.921875l-1.140625 0l0 -4.375q0 -0.765625 -0.28125 -1.140625q-0.28125 -0.390625 -0.90625 -0.390625q-0.484375 0 -0.890625 0.265625q-0.40625 0.25 -0.59375 0.734375q-0.1875 0.484375 -0.1875 1.40625l0 3.5l-1.140625 0zm11.102417 2.578125l0 -9.3125l1.03125 0l0 0.875q0.375 -0.515625 0.828125 -0.765625q0.46875 -0.265625 1.140625 -0.265625q0.859375 0 1.515625 0.453125q0.65625 0.4375 0.984375 1.25q0.34375 0.796875 0.34375 1.765625q0 1.03125 -0.375 1.859375q-0.359375 0.828125 -1.078125 1.28125q-0.703125 0.4375 -1.484375 0.4375q-0.5625 0 -1.015625 -0.234375q-0.453125 -0.25 -0.75 -0.625l0 3.28125l-1.140625 0zm1.03125 -5.90625q0 1.296875 0.53125 1.921875q0.53125 0.625 1.265625 0.625q0.765625 0 1.3125 -0.640625q0.546875 -0.65625 0.546875 -2.0q0 -1.296875 -0.53125 -1.9375q-0.53125 -0.640625 -1.265625 -0.640625q-0.734375 0 -1.296875 0.6875q-0.5625 0.671875 -0.5625 1.984375zm6.3812256 -4.65625l0 -1.328125l1.140625 0l0 1.328125l-1.140625 0zm0 7.984375l0 -6.734375l1.140625 0l0 6.734375l-1.140625 0zm2.96109 0l0 -6.734375l1.03125 0l0 0.953125q0.734375 -1.109375 2.140625 -1.109375q0.609375 0 1.109375 0.21875q0.515625 0.21875 0.765625 0.578125q0.265625 0.34375 0.359375 0.84375q0.0625 0.3125 0.0625 1.109375l0 4.140625l-1.140625 0l0 -4.09375q0 -0.703125 -0.140625 -1.046875q-0.125 -0.34375 -0.46875 -0.546875q-0.328125 -0.21875 -0.78125 -0.21875q-0.734375 0 -1.265625 0.46875q-0.53125 0.453125 -0.53125 1.75l0 3.6875l-1.140625 0zm7.1937256 0.5625l1.125 0.15625q0.0625 0.515625 0.375 0.75q0.4375 0.328125 1.171875 0.328125q0.78125 0 1.21875 -0.328125q0.4375 -0.3125 0.578125 -0.890625q0.09375 -0.34375 0.09375 -1.453125q-0.75 0.875 -1.875 0.875q-1.390625 0 -2.15625 -1.0q-0.75 -1.0 -0.75 -2.40625q0 -0.96875 0.34375 -1.78125q0.359375 -0.8125 1.015625 -1.25q0.65625 -0.453125 1.5625 -0.453125q1.1875 0 1.96875 0.96875l0 -0.8125l1.046875 0l0 5.8125q0 1.578125 -0.328125 2.234375q-0.3125 0.65625 -1.015625 1.03125q-0.6875 0.390625 -1.703125 0.390625q-1.203125 0 -1.953125 -0.546875q-0.734375 -0.53125 -0.71875 -1.625zm0.953125 -4.046875q0 1.3125 0.515625 1.921875q0.53125 0.609375 1.328125 0.609375q0.796875 0 1.328125 -0.59375q0.53125 -0.609375 0.53125 -1.90625q0 -1.234375 -0.546875 -1.859375q-0.546875 -0.640625 -1.328125 -0.640625q-0.765625 0 -1.296875 0.625q-0.53125 0.625 -0.53125 1.84375zm17.162354 0.21875l1.234375 0.3125q-0.390625 1.515625 -1.40625 2.3125q-1.0 0.796875 -2.453125 0.796875q-1.5 0 -2.453125 -0.609375q-0.9375 -0.609375 -1.4375 -1.765625q-0.484375 -1.171875 -0.484375 -2.5q0 -1.453125 0.5625 -2.53125q0.5625 -1.09375 1.578125 -1.65625q1.03125 -0.5625 2.265625 -0.5625q1.390625 0 2.34375 0.71875q0.953125 0.703125 1.328125 2.0l-1.21875 0.28125q-0.328125 -1.015625 -0.9375 -1.46875q-0.609375 -0.46875 -1.546875 -0.46875q-1.078125 0 -1.796875 0.515625q-0.71875 0.515625 -1.015625 1.375q-0.28125 0.859375 -0.28125 1.78125q0 1.1875 0.34375 2.078125q0.34375 0.890625 1.0625 1.328125q0.734375 0.4375 1.59375 0.4375q1.03125 0 1.75 -0.59375q0.71875 -0.609375 0.96875 -1.78125zm1.9689026 3.265625l3.578125 -9.3125l1.3125 0l3.8125 9.3125l-1.40625 0l-1.078125 -2.8125l-3.890625 0l-1.03125 2.8125l-1.296875 0zm2.6875 -3.828125l3.15625 0l-0.984375 -2.578125q-0.4375 -1.171875 -0.65625 -1.921875q-0.171875 0.890625 -0.5 1.78125l-1.015625 2.71875z" fill-rule="nonzero"></path><path fill="#f3f3f3" d="m431.1792 189.185l163.81104 0l0 49.13385l-163.81104 0z" fill-rule="nonzero"></path><path stroke="#000000" stroke-width="2.0" stroke-linejoin="round" stroke-linecap="butt" d="m431.1792 189.185l163.81104 0l0 49.13385l-163.81104 0z" fill-rule="nonzero"></path><path fill="#000000" d="m482.0797 218.55193l0 -9.3125l1.21875 0l0 9.3125l-1.21875 0zm2.8904724 -2.015625l1.125 -0.171875q0.09375 0.671875 0.53125 1.046875q0.4375 0.359375 1.21875 0.359375q0.78125 0 1.15625 -0.3125q0.390625 -0.328125 0.390625 -0.765625q0 -0.390625 -0.34375 -0.609375q-0.234375 -0.15625 -1.171875 -0.390625q-1.25 -0.3125 -1.734375 -0.546875q-0.484375 -0.234375 -0.734375 -0.640625q-0.25 -0.40625 -0.25 -0.90625q0 -0.453125 0.203125 -0.828125q0.203125 -0.390625 0.5625 -0.640625q0.265625 -0.203125 0.71875 -0.328125q0.46875 -0.140625 1.0 -0.140625q0.78125 0 1.375 0.234375q0.609375 0.21875 0.890625 0.609375q0.296875 0.390625 0.40625 1.046875l-1.125 0.15625q-0.078125 -0.53125 -0.4375 -0.8125q-0.359375 -0.296875 -1.03125 -0.296875q-0.78125 0 -1.125 0.265625q-0.34375 0.25 -0.34375 0.609375q0 0.21875 0.140625 0.390625q0.140625 0.1875 0.4375 0.3125q0.171875 0.0625 1.015625 0.28125q1.21875 0.328125 1.6875 0.53125q0.484375 0.203125 0.75 0.609375q0.28125 0.390625 0.28125 0.96875q0 0.578125 -0.34375 1.078125q-0.328125 0.5 -0.953125 0.78125q-0.625 0.28125 -1.421875 0.28125q-1.3125 0 -2.0 -0.546875q-0.6875 -0.546875 -0.875 -1.625zm6.6640625 0l1.125 -0.171875q0.09375 0.671875 0.53125 1.046875q0.4375 0.359375 1.21875 0.359375q0.78125 0 1.15625 -0.3125q0.390625 -0.328125 0.390625 -0.765625q0 -0.390625 -0.34375 -0.609375q-0.234375 -0.15625 -1.171875 -0.390625q-1.25 -0.3125 -1.734375 -0.546875q-0.484375 -0.234375 -0.734375 -0.640625q-0.25 -0.40625 -0.25 -0.90625q0 -0.453125 0.203125 -0.828125q0.203125 -0.390625 0.5625 -0.640625q0.265625 -0.203125 0.71875 -0.328125q0.46875 -0.140625 1.0 -0.140625q0.78125 0 1.375 0.234375q0.609375 0.21875 0.890625 0.609375q0.296875 0.390625 0.40625 1.046875l-1.125 0.15625q-0.078125 -0.53125 -0.4375 -0.8125q-0.359375 -0.296875 -1.03125 -0.296875q-0.78125 0 -1.125 0.265625q-0.34375 0.25 -0.34375 0.609375q0 0.21875 0.140625 0.390625q0.140625 0.1875 0.4375 0.3125q0.171875 0.0625 1.015625 0.28125q1.21875 0.328125 1.6875 0.53125q0.484375 0.203125 0.75 0.609375q0.28125 0.390625 0.28125 0.96875q0 0.578125 -0.34375 1.078125q-0.328125 0.5 -0.953125 0.78125q-0.625 0.28125 -1.421875 0.28125q-1.3125 0 -2.0 -0.546875q-0.6875 -0.546875 -0.875 -1.625zm11.5390625 2.015625l0 -0.984375q-0.796875 1.140625 -2.140625 1.140625q-0.59375 0 -1.125 -0.234375q-0.515625 -0.234375 -0.765625 -0.578125q-0.25 -0.34375 -0.34375 -0.84375q-0.078125 -0.328125 -0.078125 -1.0625l0 -4.171875l1.140625 0l0 3.734375q0 0.890625 0.078125 1.203125q0.109375 0.453125 0.453125 0.71875q0.34375 0.25 0.859375 0.25q0.515625 0 0.96875 -0.265625q0.453125 -0.265625 0.640625 -0.71875q0.1875 -0.453125 0.1875 -1.3125l0 -3.609375l1.140625 0l0 6.734375l-1.015625 0zm2.9906006 -7.984375l0 -1.328125l1.140625 0l0 1.328125l-1.140625 0zm0 7.984375l0 -6.734375l1.140625 0l0 6.734375l-1.140625 0zm2.96109 0l0 -6.734375l1.03125 0l0 0.953125q0.734375 -1.109375 2.140625 -1.109375q0.609375 0 1.109375 0.21875q0.515625 0.21875 0.765625 0.578125q0.265625 0.34375 0.359375 0.84375q0.0625 0.3125 0.0625 1.109375l0 4.140625l-1.140625 0l0 -4.09375q0 -0.703125 -0.140625 -1.046875q-0.125 -0.34375 -0.46875 -0.546875q-0.328125 -0.21875 -0.78125 -0.21875q-0.734375 0 -1.265625 0.46875q-0.53125 0.453125 -0.53125 1.75l0 3.6875l-1.140625 0zm7.1937256 0.5625l1.125 0.15625q0.0625 0.515625 0.375 0.75q0.4375 0.328125 1.171875 0.328125q0.78125 0 1.21875 -0.328125q0.4375 -0.3125 0.578125 -0.890625q0.09375 -0.34375 0.09375 -1.453125q-0.75 0.875 -1.875 0.875q-1.390625 0 -2.15625 -1.0q-0.75 -1.0 -0.75 -2.40625q0 -0.96875 0.34375 -1.78125q0.359375 -0.8125 1.015625 -1.25q0.65625 -0.453125 1.5625 -0.453125q1.1875 0 1.96875 0.96875l0 -0.8125l1.046875 0l0 5.8125q0 1.578125 -0.328125 2.234375q-0.3125 0.65625 -1.015625 1.03125q-0.6875 0.390625 -1.703125 0.390625q-1.203125 0 -1.953125 -0.546875q-0.734375 -0.53125 -0.71875 -1.625zm0.953125 -4.046875q0 1.3125 0.515625 1.921875q0.53125 0.609375 1.328125 0.609375q0.796875 0 1.328125 -0.59375q0.53125 -0.609375 0.53125 -1.90625q0 -1.234375 -0.546875 -1.859375q-0.546875 -0.640625 -1.328125 -0.640625q-0.765625 0 -1.296875 0.625q-0.53125 0.625 -0.53125 1.84375zm17.162354 0.21875l1.234375 0.3125q-0.390625 1.515625 -1.40625 2.3125q-1.0 0.796875 -2.453125 0.796875q-1.5 0 -2.453125 -0.609375q-0.9375 -0.609375 -1.4375 -1.765625q-0.484375 -1.171875 -0.484375 -2.5q0 -1.453125 0.5625 -2.53125q0.5625 -1.09375 1.578125 -1.65625q1.03125 -0.5625 2.265625 -0.5625q1.390625 0 2.34375 0.71875q0.953125 0.703125 1.328125 2.0l-1.21875 0.28125q-0.328125 -1.015625 -0.9375 -1.46875q-0.609375 -0.46875 -1.546875 -0.46875q-1.078125 0 -1.796875 0.515625q-0.71875 0.515625 -1.015625 1.375q-0.28125 0.859375 -0.28125 1.78125q0 1.1875 0.34375 2.078125q0.34375 0.890625 1.0625 1.328125q0.734375 0.4375 1.59375 0.4375q1.03125 0 1.75 -0.59375q0.71875 -0.609375 0.96875 -1.78125zm1.9688721 3.265625l3.578125 -9.3125l1.3125 0l3.8125 9.3125l-1.40625 0l-1.078125 -2.8125l-3.890625 0l-1.03125 2.8125l-1.296875 0zm2.6875 -3.828125l3.15625 0l-0.984375 -2.578125q-0.4375 -1.171875 -0.65625 -1.921875q-0.171875 0.890625 -0.5 1.78125l-1.015625 2.71875z" fill-rule="nonzero"></path><path fill="#000000" fill-opacity="0.0" d="m259.12262 64.46982l0 18.89537l-163.81102 0l0 18.899902" fill-rule="nonzero"></path><path stroke="#000000" stroke-width="2.0" stroke-linejoin="round" stroke-linecap="butt" d="m259.12262 64.46982l0 18.89537l-163.81102 0l0 18.899902" fill-rule="nonzero"></path><path fill="#000000" fill-opacity="0.0" d="m259.12262 64.46982l0 18.89537l163.81104 0l0 18.899902" fill-rule="nonzero"></path><path stroke="#000000" stroke-width="2.0" stroke-linejoin="round" stroke-linecap="butt" d="m259.12262 64.46982l0 18.89537l163.81104 0l0 18.899902" fill-rule="nonzero"></path><path fill="#000000" fill-opacity="0.0" d="m422.94342 151.39433l0 18.89537l-90.141754 0l0 18.899902" fill-rule="nonzero"></path><path stroke="#000000" stroke-width="2.0" stroke-linejoin="round" stroke-linecap="butt" d="m422.94342 151.39433l0 18.89537l-90.141754 0l0 18.899902" fill-rule="nonzero"></path><path fill="#000000" fill-opacity="0.0" d="m422.94342 151.39433l0 18.89537l90.14172 0l0 18.899902" fill-rule="nonzero"></path><path stroke="#000000" stroke-width="2.0" stroke-linejoin="round" stroke-linecap="butt" d="m422.94342 151.39433l0 18.89537l90.14172 0l0 18.899902" fill-rule="nonzero"></path><path fill="#f3f3f3" d="m35.65494 189.09914l90.256516 0l0 49.653427c-45.12583 0 -45.12583 19.104126 -90.256516 9.552063zm7.4360313 0l0 -6.437256l89.64009 0l0 49.964905c-3.4073792 0 -6.819603 0.3460846 -6.819603 0.3460846l0 -43.873734zm6.989479 -6.437256l0 -6.2815247l90.416695 0l0 49.809174c-3.8830414 0 -7.766083 0.25956726 -7.766083 0.25956726l0 -43.787216z" fill-rule="nonzero"></path><path fill="#000000" fill-opacity="0.0" d="m35.65494 189.09914l90.256516 0l0 49.653427c-45.12583 0 -45.12583 19.104126 -90.256516 9.552063zm7.4360313 0l0 -6.437256l89.64009 0l0 49.964905c-3.4073792 0 -6.819603 0.3460846 -6.819603 0.3460846m-75.83101 -50.31099l0 -6.2815247l90.416695 0l0 49.809174c-3.8830414 0 -7.766083 0.25956726 -7.766083 0.25956726" fill-rule="nonzero"></path><path fill="#000000" fill-opacity="0.0" d="m35.65494 248.30463c45.130688 9.552063 45.130688 -9.552063 90.256516 -9.552063l0 -5.7796936c0 0 3.4122238 -0.3460846 6.819603 -0.3460846l0 -6.1776886c0 0 3.8830414 -0.25956726 7.766083 -0.25956726l0 -49.809174l-90.416695 0l0 6.2815247l-6.989479 0l0 6.437256l-7.4360313 0z" fill-rule="nonzero"></path><path stroke="#000000" stroke-width="2.0" stroke-linejoin="round" stroke-linecap="butt" d="m35.65494 189.09914l90.256516 0l0 49.653427c-45.12583 0 -45.12583 19.104126 -90.256516 9.552063zm7.4360313 0l0 -6.437256l89.64009 0l0 49.964905c-3.4073792 0 -6.819603 0.3460846 -6.819603 0.3460846m-75.83101 -50.31099l0 -6.2815247l90.416695 0l0 49.809174c-3.8830414 0 -7.766083 0.25956726 -7.766083 0.25956726" fill-rule="nonzero"></path><path fill="#000000" d="m72.502304 220.23625l1.234375 0.3125q-0.390625 1.515625 -1.40625 2.3125q-1.0 0.796875 -2.453125 0.796875q-1.5 0 -2.453125 -0.609375q-0.9375 -0.609375 -1.4375 -1.765625q-0.484375 -1.171875 -0.484375 -2.5q0 -1.453125 0.5625 -2.53125q0.5625 -1.09375 1.578125 -1.65625q1.03125 -0.5625 2.265625 -0.5625q1.390625 0 2.34375 0.71875q0.953125 0.703125 1.328125 2.0l-1.21875 0.28125q-0.328125 -1.015625 -0.9375 -1.46875q-0.609375 -0.46875 -1.546875 -0.46875q-1.078125 0 -1.796875 0.515625q-0.71875 0.515625 -1.015625 1.375q-0.28125 0.859375 -0.28125 1.78125q0 1.1875 0.34375 2.078125q0.34375 0.890625 1.0625 1.328125q0.734375 0.4375 1.59375 0.4375q1.03125 0 1.75 -0.59375q0.71875 -0.609375 0.96875 -1.78125zm7.4532776 1.09375l1.1875 0.140625q-0.28125 1.046875 -1.046875 1.625q-0.75 0.5625 -1.921875 0.5625q-1.484375 0 -2.359375 -0.90625q-0.859375 -0.921875 -0.859375 -2.5625q0 -1.703125 0.875 -2.640625q0.890625 -0.9375 2.28125 -0.9375q1.359375 0 2.203125 0.921875q0.859375 0.921875 0.859375 2.578125q0 0.109375 0 0.3125l-5.03125 0q0.0625 1.109375 0.625 1.703125q0.5625 0.59375 1.40625 0.59375q0.640625 0 1.078125 -0.328125q0.453125 -0.34375 0.703125 -1.0625zm-3.75 -1.84375l3.765625 0q-0.078125 -0.859375 -0.4375 -1.28125q-0.546875 -0.65625 -1.40625 -0.65625q-0.796875 0 -1.328125 0.53125q-0.53125 0.515625 -0.59375 1.40625zm6.5374756 4.015625l0 -6.734375l1.03125 0l0 1.015625q0.390625 -0.71875 0.71875 -0.9375q0.34375 -0.234375 0.734375 -0.234375q0.578125 0 1.171875 0.359375l-0.390625 1.0625q-0.421875 -0.25 -0.828125 -0.25q-0.375 0 -0.6875 0.234375q-0.296875 0.21875 -0.421875 0.625q-0.1875 0.609375 -0.1875 1.328125l0 3.53125l-1.140625 0zm6.9539948 -1.015625l0.15625 1.0q-0.484375 0.109375 -0.859375 0.109375q-0.625 0 -0.96875 -0.203125q-0.34375 -0.203125 -0.484375 -0.515625q-0.140625 -0.328125 -0.140625 -1.34375l0 -3.890625l-0.828125 0l0 -0.875l0.828125 0l0 -1.671875l1.140625 -0.6875l0 2.359375l1.15625 0l0 0.875l-1.15625 0l0 3.953125q0 0.484375 0.0625 0.625q0.0625 0.140625 0.1875 0.21875q0.140625 0.078125 0.390625 0.078125q0.203125 0 0.515625 -0.03125zm0.7498627 -1.0l1.125 -0.171875q0.09375 0.671875 0.53125 1.046875q0.4375 0.359375 1.21875 0.359375q0.78125 0 1.15625 -0.3125q0.390625 -0.328125 0.390625 -0.765625q0 -0.390625 -0.34375 -0.609375q-0.234375 -0.15625 -1.171875 -0.390625q-1.25 -0.3125 -1.734375 -0.546875q-0.484375 -0.234375 -0.734375 -0.640625q-0.25 -0.40625 -0.25 -0.90625q0 -0.453125 0.203125 -0.828125q0.203125 -0.390625 0.5625 -0.640625q0.265625 -0.203125 0.71875 -0.328125q0.46875 -0.140625 1.0 -0.140625q0.78125 0 1.375 0.234375q0.609375 0.21875 0.890625 0.609375q0.296875 0.390625 0.40625 1.046875l-1.125 0.15625q-0.078125 -0.53125 -0.4375 -0.8125q-0.359375 -0.296875 -1.03125 -0.296875q-0.78125 0 -1.125 0.265625q-0.34375 0.25 -0.34375 0.609375q0 0.21875 0.140625 0.390625q0.140625 0.1875 0.4375 0.3125q0.171875 0.0625 1.015625 0.28125q1.21875 0.328125 1.6875 0.53125q0.484375 0.203125 0.75 0.609375q0.28125 0.390625 0.28125 0.96875q0 0.578125 -0.34375 1.078125q-0.328125 0.5 -0.953125 0.78125q-0.625 0.28125 -1.421875 0.28125q-1.3125 0 -2.0 -0.546875q-0.6875 -0.546875 -0.875 -1.625z" fill-rule="nonzero"></path><path fill="#f3f3f3" d="m453.43768 272.82806l90.25653 0l0 49.65341c-45.125854 0 -45.125854 19.104126 -90.25653 9.552063zm7.436035 0l0 -6.4372864l89.640076 0l0 49.964905c-3.4073486 0 -6.81958 0.34609985 -6.81958 0.34609985l0 -43.87372zm6.9894714 -6.4372864l0 -6.281494l90.41672 0l0 49.809143c-3.8830566 0 -7.7661133 0.25958252 -7.7661133 0.25958252l0 -43.78723z" fill-rule="nonzero"></path><path fill="#000000" fill-opacity="0.0" d="m453.43768 272.82806l90.25653 0l0 49.65341c-45.125854 0 -45.125854 19.104126 -90.25653 9.552063zm7.436035 0l0 -6.4372864l89.640076 0l0 49.964905c-3.4073486 0 -6.81958 0.34609985 -6.81958 0.34609985m-75.831024 -50.311005l0 -6.281494l90.41672 0l0 49.809143c-3.8830566 0 -7.7661133 0.25958252 -7.7661133 0.25958252" fill-rule="nonzero"></path><path fill="#000000" fill-opacity="0.0" d="m453.43768 332.03354c45.130676 9.552063 45.130676 -9.552063 90.25653 -9.552063l0 -5.7796936c0 0 3.4122314 -0.34609985 6.81958 -0.34609985l0 -6.1776733c0 0 3.8830566 -0.25958252 7.7661133 -0.25958252l0 -49.809143l-90.41672 0l0 6.281494l-6.9894714 0l0 6.4372864l-7.436035 0z" fill-rule="nonzero"></path><path stroke="#000000" stroke-width="2.0" stroke-linejoin="round" stroke-linecap="butt" d="m453.43768 272.82806l90.25653 0l0 49.65341c-45.125854 0 -45.125854 19.104126 -90.25653 9.552063zm7.436035 0l0 -6.4372864l89.640076 0l0 49.964905c-3.4073486 0 -6.81958 0.34609985 -6.81958 0.34609985m-75.831024 -50.311005l0 -6.281494l90.41672 0l0 49.809143c-3.8830566 0 -7.7661133 0.25958252 -7.7661133 0.25958252" fill-rule="nonzero"></path><path fill="#000000" d="m490.28503 303.96518l1.234375 0.3125q-0.390625 1.515625 -1.40625 2.3125q-1.0 0.796875 -2.453125 0.796875q-1.5 0 -2.453125 -0.609375q-0.9375 -0.609375 -1.4375 -1.765625q-0.484375 -1.171875 -0.484375 -2.5q0 -1.453125 0.5625 -2.53125q0.5625 -1.09375 1.578125 -1.65625q1.03125 -0.5625 2.265625 -0.5625q1.390625 0 2.34375 0.71875q0.953125 0.703125 1.328125 2.0l-1.21875 0.28125q-0.328125 -1.015625 -0.9375 -1.46875q-0.609375 -0.46875 -1.546875 -0.46875q-1.078125 0 -1.796875 0.515625q-0.71875 0.515625 -1.015625 1.375q-0.28125 0.859375 -0.28125 1.78125q0 1.1875 0.34375 2.078125q0.34375 0.890625 1.0625 1.328125q0.734375 0.4375 1.59375 0.4375q1.03125 0 1.75 -0.59375q0.71875 -0.609375 0.96875 -1.78125zm7.4532776 1.09375l1.1875 0.140625q-0.28125 1.046875 -1.046875 1.625q-0.75 0.5625 -1.921875 0.5625q-1.484375 0 -2.359375 -0.90625q-0.859375 -0.921875 -0.859375 -2.5625q0 -1.703125 0.875 -2.640625q0.890625 -0.9375 2.28125 -0.9375q1.359375 0 2.203125 0.921875q0.859375 0.921875 0.859375 2.578125q0 0.109375 0 0.3125l-5.03125 0q0.0625 1.109375 0.625 1.703125q0.5625 0.59375 1.40625 0.59375q0.640625 0 1.078125 -0.328125q0.453125 -0.34375 0.703125 -1.0625zm-3.75 -1.84375l3.765625 0q-0.078125 -0.859375 -0.4375 -1.28125q-0.546875 -0.65625 -1.40625 -0.65625q-0.796875 0 -1.328125 0.53125q-0.53125 0.515625 -0.59375 1.40625zm6.5374756 4.015625l0 -6.734375l1.03125 0l0 1.015625q0.390625 -0.71875 0.71875 -0.9375q0.34375 -0.234375 0.734375 -0.234375q0.578125 0 1.171875 0.359375l-0.390625 1.0625q-0.421875 -0.25 -0.828125 -0.25q-0.375 0 -0.6875 0.234375q-0.296875 0.21875 -0.421875 0.625q-0.1875 0.609375 -0.1875 1.328125l0 3.53125l-1.140625 0zm6.95401 -1.015625l0.15625 1.0q-0.484375 0.109375 -0.859375 0.109375q-0.625 0 -0.96875 -0.203125q-0.34375 -0.203125 -0.484375 -0.515625q-0.140625 -0.328125 -0.140625 -1.34375l0 -3.890625l-0.828125 0l0 -0.875l0.828125 0l0 -1.671875l1.140625 -0.6875l0 2.359375l1.15625 0l0 0.875l-1.15625 0l0 3.953125q0 0.484375 0.0625 0.625q0.0625 0.140625 0.1875 0.21875q0.140625 0.078125 0.390625 0.078125q0.203125 0 0.515625 -0.03125zm0.7498474 -1.0l1.125 -0.171875q0.09375 0.671875 0.53125 1.046875q0.4375 0.359375 1.21875 0.359375q0.78125 0 1.1562805 -0.3125q0.390625 -0.328125 0.390625 -0.765625q0 -0.390625 -0.34375 -0.609375q-0.234375 -0.15625 -1.1719055 -0.390625q-1.25 -0.3125 -1.734375 -0.546875q-0.484375 -0.234375 -0.734375 -0.640625q-0.25 -0.40625 -0.25 -0.90625q0 -0.453125 0.203125 -0.828125q0.203125 -0.390625 0.5625 -0.640625q0.265625 -0.203125 0.71875 -0.328125q0.46875 -0.140625 1.0 -0.140625q0.78125 0 1.3750305 0.234375q0.609375 0.21875 0.890625 0.609375q0.296875 0.390625 0.40625 1.046875l-1.125 0.15625q-0.078125 -0.53125 -0.4375 -0.8125q-0.35940552 -0.296875 -1.0312805 -0.296875q-0.78125 0 -1.125 0.265625q-0.34375 0.25 -0.34375 0.609375q0 0.21875 0.140625 0.390625q0.140625 0.1875 0.4375 0.3125q0.171875 0.0625 1.015625 0.28125q1.2187805 0.328125 1.6875305 0.53125q0.484375 0.203125 0.75 0.609375q0.28125 0.390625 0.28125 0.96875q0 0.578125 -0.34375 1.078125q-0.328125 0.5 -0.953125 0.78125q-0.6250305 0.28125 -1.4219055 0.28125q-1.3125 0 -2.0 -0.546875q-0.6875 -0.546875 -0.875 -1.625z" fill-rule="nonzero"></path><path fill="#000000" fill-opacity="0.0" d="m95.301834 151.39433l0 12.492935l0.06299591 0l0 12.483444" fill-rule="nonzero"></path><path stroke="#000000" stroke-width="2.0" stroke-linejoin="round" stroke-linecap="butt" d="m95.301834 151.39433l0 12.492935l0.06299591 0l0 12.483444" fill-rule="nonzero"></path><path fill="#000000" fill-opacity="0.0" d="m513.0847 238.31885l0 10.895248l0.06298828 0l0 10.90004" fill-rule="nonzero"></path><path stroke="#000000" stroke-width="2.0" stroke-linejoin="round" stroke-linecap="butt" d="m513.0847 238.31885l0 10.895248l0.06298828 0l0 10.90004" fill-rule="nonzero"></path></g></svg>

